#!OML:ASF I:\Actors\actors\Patient Classification 2\Patient 1\Session 1\actor1.ASF
:FULLY-SPECIFIED
:DEGREES
408
root -0.714998 18.1361 5.53325 -1.56324 1.00557 -6.03741
lowerback 5.00738 -1.54785 -4.29064
upperback 0.373448 -2.36648 -2.66275
thorax -2.36259 -1.14585 -0.174489
lowerneck -10.614 -7.82788 -9.11593
upperneck 34.4566 -13.1864 10.146
head 15.1477 -5.7179 3.60864
rclavicle 3.41661e-015 3.18055e-015
rhumerus 20.6859 23.0212 -2.95562
rradius 97.1059
rwrist 13.5297
rhand -6.21177 -3.84801
rfingers 7.12502
rthumb 19.6288 -32.8771
lclavicle 3.41661e-015 3.18055e-015
lhumerus -0.391129 -60.2913 82.1492
lradius 85.804
lwrist 22.3403
lhand -7.78132 -27.3938
lfingers 7.12502
lthumb 18.1192 1.78222
rfemur 0 0 0
rtibia 0
rfoot 0 0
rtoes 0
lfemur 19.6083 -8.70039 -11.7223
ltibia -21.6399
lfoot -1.14444 18.8181
ltoes -7.53696
409
root -0.714304 18.1308 5.52828 -1.75528 1.02743 -6.07493
lowerback 5.56691 -1.64702 -4.12945
upperback 0.268323 -2.53968 -2.9966
thorax -2.80282 -1.22743 -0.576509
lowerneck -10.318 -7.99079 -9.08455
upperneck 34.6203 -13.6198 10.4518
head 15.2518 -5.88019 3.66815
rclavicle -1.53934e-014 -4.77083e-014
rhumerus 22.5863 19.4513 -2.43067
rradius 96.6923
rwrist 17.9943
rhand -7.09793 -1.22917
rfingers 7.12502
rthumb 18.7766 -30.3429
lclavicle -1.53934e-014 -4.77083e-014
lhumerus 2.69504 -61.4021 80.8931
lradius 84.268
lwrist 20.6973
lhand -7.73274 -28.5687
lfingers 7.12502
lthumb 18.166 0.602965
rfemur 0 0 0
rtibia 0
rfoot 0 0
rtoes 0
lfemur 19.8609 -8.63936 -11.6994
ltibia -21.7788
lfoot -1.00455 18.7338
ltoes -7.65496
410
root -0.713034 18.1254 5.52427 -1.9554 1.12802 -6.11066
lowerback 5.61792 -1.84706 -4.3848
upperback 0.545416 -2.81112 -3.03918
thorax -2.52976 -1.36613 -0.461505
lowerneck -10.3787 -8.15014 -9.30794
upperneck 34.5582 -13.8978 10.691
head 15.325 -6.00205 3.75079
rclavicle 1.87727e-014 4.29375e-014
rhumerus 25.0811 15.6418 -1.79259
rradius 96.1599
rwrist 20.135
rhand -8.27867 0.281449
rfingers 7.12502
rthumb 17.6407 -28.9383
lclavicle 1.87727e-014 4.29375e-014
lhumerus 7.18354 -61.8953 78.788
lradius 82.7106
lwrist 18.8107
lhand -7.42961 -29.8772
lfingers 7.12502
lthumb 18.4576 -0.732843
rfemur 0 0 0
rtibia 0
rfoot 0 0
rtoes 0
lfemur 20.1263 -8.63348 -11.6897
ltibia -21.9675
lfoot -0.780673 18.6243
ltoes -8.05878
411
root -0.711994 18.1202 5.52172 -2.15455 1.33798 -6.11746
lowerback 6.04048 -2.01674 -4.56109
upperback 0.56017 -3.07829 -3.12265
thorax -2.74071 -1.49338 -0.413772
lowerneck -10.1371 -8.3519 -9.74312
upperneck 34.5072 -14.2409 11.0054
head 15.3742 -6.18424 3.90149
rclavicle -9.13167e-015 -3.97569e-014
rhumerus 27.2663 12.5903 -1.39132
rradius 95.9292
rwrist 19.4901
rhand -8.4856 -0.0510031
rfingers 7.12502
rthumb 17.4415 -29.2885
lclavicle -9.13167e-015 -3.97569e-014
lhumerus 11.0037 -62.6168 77.2551
lradius 81.4568
lwrist 17.1268
lhand -7.20742 -31.0768
lfingers 7.12502
lthumb 18.6713 -1.95293
rfemur 0 0 0
rtibia 0
rfoot 0 0
rtoes 0
lfemur 20.4534 -8.82796 -11.7349
ltibia -22.3152
lfoot -0.508784 18.622
ltoes -8.00764
412
root -0.704042 18.1128 5.51749 -2.44689 1.66636 -6.33387
lowerback 6.73768 -2.27659 -4.25512
upperback 0.504926 -3.45676 -3.23449
thorax -3.20433 -1.67698 -0.636703
lowerneck -9.86249 -8.5053 -10.2685
upperneck 34.4821 -14.4893 11.2984
head 15.4235 -6.34269 4.07878
rclavicle -3.59365e-015 -2.54444e-014
rhumerus 29.4281 9.96682 -1.24821
rradius 95.7309
rwrist 17.9451
rhand -8.99696 -1.32645
rfingers 7.12502
rthumb 16.9494 -30.6069
lclavicle -3.59365e-015 -2.54444e-014
lhumerus 14.4891 -63.423 75.6791
lradius 80.7514
lwrist 16.3313
lhand -7.26107 -31.9737
lfingers 7.12502
lthumb 18.6197 -2.84479
rfemur 0 0 0
rtibia 0
rfoot 0 0
rtoes 0
lfemur 20.8146 -9.09929 -11.5841
ltibia -22.5659
lfoot -0.285954 18.5676
ltoes -7.68115
413
root -0.682314 18.0982 5.50864 -2.94307 2.05466 -7.05902
lowerback 7.83259 -2.63405 -3.17255
upperback 0.414408 -3.91694 -3.24377
thorax -3.97631 -1.9105 -1.14849
lowerneck -9.73409 -8.5875 -10.7395
upperneck 34.6818 -14.5648 11.326
head 15.5561 -6.44185 4.1679
rclavicle 2.26366e-014 3.49861e-014
rhumerus 31.7375 7.54966 -1.21873
rradius 95.4778
rwrist 15.6624
rhand -9.75426 -2.36055
rfingers 7.12502
rthumb 16.2203 -31.702
lclavicle 2.26366e-014 3.49861e-014
lhumerus 17.4353 -64.167 74.4142
lradius 80.5289
lwrist 16.1781
lhand -7.54632 -32.6154
lfingers 7.12502
lthumb 18.3453 -3.46047
rfemur 0 0 0
rtibia 0
rfoot 0 0
rtoes 0
lfemur 21.3688 -9.2249 -10.8981
ltibia -22.7975
lfoot -0.0686245 18.2759
ltoes -7.58653
414
root -0.704374 18.1019 5.52305 -2.88095 2.29296 -6.62783
lowerback 7.78426 -2.84257 -4.17251
upperback 0.417065 -4.27924 -3.30374
thorax -3.87883 -2.07279 -0.620349
lowerneck -9.84208 -8.63978 -11.0656
upperneck 34.8128 -14.5276 11.1811
head 15.6577 -6.48227 4.16657
rclavicle 3.90115e-014 3.49861e-014
rhumerus 34.2422 5.1372 -1.27338
rradius 95.1929
rwrist 13.3313
rhand -10.5032 -3.34969
rfingers 7.12502
rthumb 15.499 -32.7485
lclavicle 3.90115e-014 3.49861e-014
lhumerus 20.4552 -64.6756 73.0853
lradius 80.672
lwrist 16.1819
lhand -7.73297 -33.2564
lfingers 7.12502
lthumb 18.1658 -4.08468
rfemur 0 0 0
rtibia 0
rfoot 0 0
rtoes 0
lfemur 21.3254 -9.44611 -11.3182
ltibia -22.9669
lfoot 0.0377647 18.3572
ltoes -7.51801
415
root -0.714405 18.0999 5.5346 -2.93662 2.49395 -6.54316
lowerback 7.50439 -3.09577 -4.83311
upperback 0.691239 -4.63018 -3.19472
thorax -3.36985 -2.24724 -0.133209
lowerneck -10.1311 -8.65589 -11.3195
upperneck 34.7432 -14.3608 10.9419
head 15.6614 -6.4602 4.12209
rclavicle -9.11552e-014 -3.65764e-014
rhumerus 36.9188 2.86206 -1.54425
rradius 94.6477
rwrist 13.9984
rhand -12.3477 -3.89034
rfingers 7.12502
rthumb 13.7219 -33.4179
lclavicle -9.11552e-014 -3.65764e-014
lhumerus 23.6444 -64.8712 71.5769
lradius 81.1957
lwrist 16.3288
lhand -7.8939 -33.8024
lfingers 7.12502
lthumb 18.0109 -4.61633
rfemur 0 0 0
rtibia 0
rfoot 0 0
rtoes 0
lfemur 21.4178 -9.64503 -11.4036
ltibia -23.1025
lfoot 0.0548797 18.4011
ltoes -7.3847
416
root -0.71722 18.0978 5.54551 -2.97265 2.63468 -6.66724
lowerback 7.41778 -3.30584 -5.04714
upperback 0.788709 -4.91007 -3.09525
thorax -3.18496 -2.38745 0.103885
lowerneck -10.1478 -8.64488 -11.2974
upperneck 34.545 -14.1177 10.424
head 15.465 -6.41508 3.9312
rclavicle -6.4928e-014 -1.74931e-014
rhumerus 39.4506 1.14275 -2.32341
rradius 94.5417
rwrist 14.4288
rhand -12.6661 -3.97267
rfingers 7.12502
rthumb 13.4151 -33.5207
lclavicle -6.4928e-014 -1.74931e-014
lhumerus 25.7419 -65.2929 70.8834
lradius 82.1417
lwrist 16.5993
lhand -8.12769 -34.2141
lfingers 7.12502
lthumb 17.786 -5.00748
rfemur 0 0 0
rtibia 0
rfoot 0 0
rtoes 0
lfemur 21.4435 -9.84414 -11.2784
ltibia -23.0767
lfoot -0.0737026 18.4722
ltoes -7.0839
417
root -0.7181 18.0966 5.55838 -2.96149 2.66614 -6.79046
lowerback 7.32661 -3.44662 -5.16138
upperback 0.805565 -5.09505 -3.01241
thorax -3.09239 -2.47959 0.261524
lowerneck -10.2294 -8.63685 -11.3053
upperneck 34.4603 -13.9234 10.0067
head 15.3663 -6.37941 3.783
rclavicle 2.67117e-014 3.02153e-014
rhumerus 41.8316 -0.113441 -3.31971
rradius 94.4804
rwrist 15.3845
rhand -13.2409 -3.04064
rfingers 7.12502
rthumb 12.861 -32.6244
lclavicle 2.67117e-014 3.02153e-014
lhumerus 27.3955 -65.9299 70.3156
lradius 83.5394
lwrist 16.867
lhand -8.08734 -34.6781
lfingers 7.12502
lthumb 17.8248 -5.47503
rfemur 0 0 0
rtibia 0
rfoot 0 0
rtoes 0
lfemur 21.5069 -9.99891 -11.1627
ltibia -23.1218
lfoot -0.176814 18.5915
ltoes -6.93433
418
root -0.718786 18.0939 5.57408 -2.95198 2.58576 -6.82597
lowerback 7.22804 -3.51731 -5.2984
upperback 0.816378 -5.18962 -2.96367
thorax -3.00575 -2.52678 0.387554
lowerneck -10.524 -8.63519 -11.4374
upperneck 34.5986 -13.7756 9.74157
head 15.465 -6.35157 3.71107
rclavicle 5.48646e-014 -1.74931e-014
rhumerus 43.9884 -1.52465 -3.91857
rradius 94.7142
rwrist 15.6198
rhand -13.7184 -2.53311
rfingers 7.12502
rthumb 12.4006 -32.1453
lclavicle 5.48646e-014 -1.74931e-014
lhumerus 29.113 -66.7574 69.3606
lradius 85.3238
lwrist 17.0666
lhand -7.91338 -35.1131
lfingers 7.12502
lthumb 17.9922 -5.9253
rfemur 0 0 0
rtibia 0
rfoot 0 0
rtoes 0
lfemur 21.6281 -10.0737 -11.1502
ltibia -23.1841
lfoot -0.261963 18.7094
ltoes -6.83884
419
root -0.720301 18.09 5.59028 -2.97133 2.46028 -6.81214
lowerback 7.12997 -3.54967 -5.4371
upperback 0.849574 -5.23266 -2.93818
thorax -2.89991 -2.54945 0.484929
lowerneck -10.7615 -8.6651 -11.7438
upperneck 34.5076 -13.7229 9.78681
head 15.5032 -6.35328 3.7796
rclavicle -8.22472e-015 -6.36111e-015
rhumerus 46.0049 -3.41596 -4.09453
rradius 95.21
rwrist 14.5178
rhand -13.8633 -2.43256
rfingers 7.12502
rthumb 12.2609 -32.0531
lclavicle -8.22472e-015 -6.36111e-015
lhumerus 31.0583 -67.7541 67.8817
lradius 87.4207
lwrist 17.2065
lhand -7.90086 -35.3832
lfingers 7.12502
lthumb 18.0042 -6.19653
rfemur 0 0 0
rtibia 0
rfoot 0 0
rtoes 0
lfemur 21.7965 -10.1935 -11.207
ltibia -23.2403
lfoot -0.396183 18.9127
ltoes -6.81012
420
root -0.721466 18.086 5.60468 -3.0055 2.33906 -6.86766
lowerback 7.03502 -3.5505 -5.44794
upperback 0.878653 -5.22468 -2.9142
thorax -2.81377 -2.54798 0.506837
lowerneck -10.8412 -8.74053 -12.0109
upperneck 34.2627 -13.7573 9.86531
head 15.4422 -6.38963 3.84044
rclavicle -5.0864e-014 5.40694e-014
rhumerus 47.919 -3.71141 -5.48377
rradius 95.5439
rwrist 14.7826
rhand -13.7814 -2.08545
rfingers 7.12502
rthumb 12.3399 -31.7013
lclavicle -5.0864e-014 5.40694e-014
lhumerus 33.3791 -68.9652 65.7221
lradius 89.8051
lwrist 17.2409
lhand -8.02498 -35.6537
lfingers 7.12502
lthumb 17.8848 -6.45606
rfemur 0 0 0
rtibia 0
rfoot 0 0
rtoes 0
lfemur 21.963 -10.3415 -11.1936
ltibia -23.2826
lfoot -0.527123 19.1539
ltoes -6.82668
